<svg width="48" height="47" xmlns="http://www.w3.org/2000/svg"><defs><linearGradient x1="17.033%" y1="17.751%" x2="76.677%" y2="95.963%" id="a"><stop stop-color="#1A85F6" offset="0%"/><stop stop-color="#D82D28" offset="100%"/></linearGradient></defs><path d="M4.124 34.498v6.574l2.638-1.998 2.637 1.998v-6.574h4.125v13.524H0V34.498h4.124zm17.238 0v6.574L24 39.074l2.638 1.998v-6.574h4.124v13.524H17.239V34.498h4.123zm17.238 0v6.574l2.638-1.998 2.638 1.998v-6.574H48v13.524H34.477V34.498H38.6zM12.744 18.25v6.572l2.637-1.996 2.638 1.996V18.25h4.124v13.522H8.619V18.25h4.125zm17.238 0v6.572l2.637-1.996 2.638 1.996V18.25h4.123v13.522H25.86V18.25h4.123zM21.362 2v6.573L24 6.577l2.638 1.997V2h4.124v13.523H17.238V2h4.124z" transform="translate(0 -2)" fill="url(#a)"/></svg>