<svg xmlns="http://www.w3.org/2000/svg" width="48" height="47"><path d="M4.124 32.498v6.574l2.638-1.998 2.637 1.998v-6.574h4.125v13.524H0V32.498h4.124zm17.238 0v6.574L24 37.074l2.638 1.998v-6.574h4.124v13.524H17.239V32.498h4.123zm17.238 0v6.574l2.638-1.998 2.638 1.998v-6.574H48v13.524H34.477V32.498H38.6zM12.744 16.25v6.572l2.637-1.996 2.638 1.996V16.25h4.124v13.522H8.619V16.25h4.125zm17.238 0v6.572l2.637-1.996 2.638 1.996V16.25h4.123v13.522H25.86V16.25h4.123zM21.362 0v6.573L24 4.577l2.638 1.997V0h4.124v13.523H17.238V0h4.124z" fill="#3C7ABB"/></svg>