<svg width="42" height="42" xmlns="http://www.w3.org/2000/svg"><defs><linearGradient x1="17.033%" y1="14.919%" x2="76.677%" y2="100%" id="a"><stop stop-color="#1A85F6" offset="0%"/><stop stop-color="#D82D28" offset="100%"/></linearGradient></defs><path d="M35.863 9.137C27.679.954 14.32.954 6.137 9.137c-8.183 8.184-8.183 21.542 0 29.726 8.184 8.183 21.542 8.183 29.726 0 8.183-8.184 8.183-21.542 0-29.726zm3.068 20.786l-6.623-2.246a11.787 11.787 0 000-7.354l6.623-2.246a19.627 19.627 0 010 11.846zM3.07 18.077l6.623 2.246a11.787 11.787 0 000 7.354L3.07 29.923a19.627 19.627 0 010-11.846zM14.6 30.399c-3.673-3.673-3.673-9.664 0-13.337s9.664-3.673 13.337 0 3.673 9.664 0 13.337c-3.717 3.673-9.664 3.673-13.337 0zM26.923 6.07l-2.246 6.623a11.787 11.787 0 00-7.354 0L15.077 6.07a19.627 19.627 0 0111.846 0zM15.077 41.93l2.246-6.623a11.79 11.79 0 007.354 0l2.246 6.623a19.627 19.627 0 01-11.846 0z" transform="translate(0 -3)" fill="url(#a)"/></svg>