<svg width="47" height="47" xmlns="http://www.w3.org/2000/svg"><defs><linearGradient x1="17.033%" y1="14.957%" x2="76.677%" y2="99.945%" id="a"><stop stop-color="#1A85F6" offset="0%"/><stop stop-color="#D82D28" offset="100%"/></linearGradient></defs><path d="M46.827 22.99a.913.913 0 00-.336-.335l-6.363-3.67 3.685-6.378a.913.913 0 00-.794-1.376h-7.345V3.906a.913.913 0 00-1.376-.794l-6.379 3.675L24.274.423a.952.952 0 00-1.583 0l-3.675 6.364-6.359-3.675a.913.913 0 00-1.376.794v7.345h-7.34a.913.913 0 00-.799 1.356l3.67 6.354L.46 22.65a.913.913 0 000 1.583l6.353 3.665-3.67 6.343a.913.913 0 00.794 1.377h7.345v7.364a.913.913 0 001.376.794l6.354-3.67 3.67 6.354a.913.913 0 001.583 0l3.655-6.354 6.354 3.67a.913.913 0 001.376-.794v-7.345H43a.913.913 0 00.794-1.396L40.138 27.9l6.353-3.67a.913.913 0 00.336-1.238zm-31.481-4.932a3.606 3.606 0 117.212 0 3.606 3.606 0 01-7.212 0zm3.088 14.305a.917.917 0 01-1.48-1.06l12.391-17.398a.913.913 0 011.278-.213.913.913 0 01.256 1.268L18.434 32.363zm10.151-.335a3.606 3.606 0 113.606-3.606 3.606 3.606 0 01-3.6 3.61l-.006-.004zm.005-1.835a1.77 1.77 0 100-3.542 1.77 1.77 0 000 3.542zm-9.633-10.354a1.77 1.77 0 100-3.542 1.77 1.77 0 000 3.542z" fill="url(#a)"/></svg>