<svg xmlns="http://www.w3.org/2000/svg" width="62" height="36"><path d="M41.327 7.9l.777-.607v.608l-.777.607v-.607zm-1.824.803h.421l.375-.195.42.705-1.216.51v-1.02zm-6.685.99l-1.215.639.423-1.216.792.576zm-1.514-1.185l.299.608-.299.608-.917-.63.917-.586zm-.957-1.215l.33 1.215h-.898l.568-1.215zM19.449 13.25v-.855l2.758-2.35 1.5.266 1.21-.587v.534l-2.226.962-2.662 2.137-.194 1.229-.387-.214V13.25zM.146 14.586l1.07.607v.608h-.7L0 14.586h.146zm53.84-2.51l-.77-.048-.575.73 1.153 2.723-.865.973-2.69 3.16.143 4.28.865.194 1.49-.486.528-1.41 2.738 1.994 1.153 1.703 1.634.778-.961.34v.633h-.53l-1.873-2.967-1.538-.389 1.923 3.89v4.62l-1.393.973-.576.73-.337-1.995.337-1.362-.818-2.237-1.393 1.703-2.498-.73-2.546-1.46-1.73 1.41v2.432l-1.249.34-3.027 1.995-3.603-.73-2.594-.194-.24 1.896-3.268-.729-3.603 1.02-1.009-.777-1.778-.972-1.153-2.869h-2.018l-1.393-1.75-3.7-.098-1.105.195-.913 1.946-2.546-1.362-1.346-1.848-2.763-.292-1.033.633.048 2.82-1.97.438-.576 2.869-.53.291-.624-2.286-2.256-3.016v-1.8l3.459-1.652-1.249-3.258V21.9l.288-.632 1.01-2.577 1.729-2.48 3.363-1.313 1.97-2.772 2.066-.778 1.25 2.675-1.01 1.118-.865-.097-.337-1.46-.576.05-1.008 1.506 1.489 1.119 1.105-.681 1.49.536.671-1.362-.047 1.556 3.41.292 1.443.34v-1.362l.96 1.46 1.49 1.215.047-.972.096-1.167 1.729-1.654-.625 4.377-1.586 1.507.48.292 2.5-1.848-.529-2.091.528-1.605.53 1.07.335-.34.96.29-.047-1.506 1.105-.049.24-.68 2.739-1.8.72-1.07 1.778.34.961.876-1.009 2.431 3.844-1.02.288-.682 1.057-.584 1.97 1.216 1.779-2.967 1.92-.583 1.923-1.848h1.393l1.106-3.356 1.44-1.508 2.691-2.042V.307L53.985 0l.865 1.814-1.778 1.41.961 1.264h1.441l.144.924.769 3.793-.72 2.189.432 1.362 2.835 1.994.385 2.188.24 1.896-2.21-1.167-1.778-2.626-.817-3.745-.865-1.264-.48.195.577 1.85zm6.18 7.565v-.487l.314-.314.627.749-.593.436-.347-.384zm.843 7.707l-.235-.364.47-.851.314.778-.55.437zm.373-2.496v-1.15l.592.975-.592.175zm.557-1.182l-.557-.487v-.697l.557.174v1.01z" fill="#3C7ABB"/></svg>