<svg xmlns="http://www.w3.org/2000/svg" width="30" height="30"><path d="M26.02 21.273A5.254 5.254 0 0130 26.371v2.022C30 29.28 29.28 30 28.393 30H1.607C.72 30 0 29.28 0 28.393V26.37a5.258 5.258 0 013.98-5.1l5.747-1.435-.007-.734c-.007-.657-.28-1.313-.779-1.859-1.64-1.797-2.44-3.53-2.7-5.545-.097-.758-.116-1.333-.116-2.634A9.019 9.019 0 0115.03-.001c4.932.09 8.845 4.093 8.845 9.066 0 1.3-.019 1.875-.116 2.633-.26 2.015-1.06 3.748-2.7 5.546-.499.546-.772 1.201-.779 1.86l-.007.732 5.747 1.436zm.877 5.204a2.06 2.06 0 00-1.56-1.997l-6.103-1.525a2.851 2.851 0 01-2.16-2.796l.012-1.05c.015-1.485.607-2.906 1.633-4.03 1.205-1.321 1.727-2.451 1.904-3.826.075-.58.09-1.07.09-2.243 0-3.253-2.536-5.848-5.683-5.907-3.207.06-5.744 2.653-5.744 5.906 0 1.174.016 1.662.09 2.243.178 1.375.7 2.505 1.905 3.826 1.026 1.124 1.618 2.544 1.633 4.03l.011 1.05a2.85 2.85 0 01-2.159 2.796l-6.102 1.524a2.061 2.061 0 00-1.56 2v.419h23.793v-.42z" fill="#324769"/></svg>