<svg xmlns="http://www.w3.org/2000/svg" width="47" height="47"><path d="M46.827 22.99a.915.915 0 00-.336-.335l-6.363-3.67 3.685-6.378a.912.912 0 00-.794-1.376h-7.345V3.906a.913.913 0 00-1.377-.794L27.92 6.787 24.274.423a.95.95 0 00-1.583 0l-3.675 6.364-6.359-3.675a.91.91 0 00-1.376.794v7.345h-7.34a.913.913 0 00-.798 1.356l3.67 6.354-6.354 3.69a.91.91 0 000 1.583l6.353 3.665-3.67 6.343a.912.912 0 00.794 1.377h7.345v7.364a.913.913 0 001.377.794l6.353-3.67 3.67 6.354a.912.912 0 001.583-.001l3.655-6.353 6.354 3.67a.91.91 0 001.376-.794v-7.345H43a.912.912 0 00.794-1.396L40.138 27.9l6.353-3.67a.912.912 0 00.336-1.238zm-31.481-4.932a3.606 3.606 0 117.211 0 3.606 3.606 0 01-7.211 0zm3.088 14.305a.916.916 0 01-1.48-1.061l12.391-17.397a.909.909 0 011.278-.212.91.91 0 01.256 1.267L18.434 32.363zm10.151-.335a3.606 3.606 0 113.606-3.606 3.6 3.6 0 01-1.052 2.55 3.599 3.599 0 01-2.549 1.06l-.005-.004zm.005-1.835a1.771 1.771 0 100-3.542 1.771 1.771 0 000 3.542zm-9.633-10.354a1.77 1.77 0 100-3.54 1.77 1.77 0 000 3.54z" fill="#3C7ABB"/></svg>