<svg xmlns="http://www.w3.org/2000/svg" width="42" height="42" viewBox="0 0 42 42">
    <g fill="none" fill-rule="evenodd">
        <g fill="#3C7ABB" fill-rule="nonzero">
            <g>
                <g>
                    <path d="M35.863 9.137C27.679.954 14.32.954 6.137 9.137c-8.183 8.184-8.183 21.542 0 29.726 8.184 8.183 21.542 8.183 29.726 0 8.183-8.184 8.183-21.542 0-29.726zm3.068 20.786l-6.623-2.246c.784-2.378.784-4.976 0-7.354l6.623-2.246c1.22 3.875 1.22 8.015 0 11.846zM3.07 18.077l6.623 2.246c-.784 2.378-.784 4.976 0 7.354L3.07 29.923c-1.22-3.875-1.22-8.015 0-11.846zM14.6 30.399c-3.673-3.673-3.673-9.664 0-13.337s9.664-3.673 13.337 0 3.673 9.664 0 13.337c-3.717 3.673-9.664 3.673-13.337 0zM26.923 6.07l-2.246 6.623c-2.378-.784-4.976-.784-7.354 0L15.077 6.07c3.875-1.22 8.015-1.22 11.846 0zM15.077 41.93l2.246-6.623c2.378.784 4.976.784 7.354 0l2.246 6.623c-3.875 1.22-8.015 1.22-11.846 0z" transform="translate(-329.000000, -2612.000000) translate(320.000000, 2389.000000) translate(9.000000, 220.000000)"/>
                </g>
            </g>
        </g>
    </g>
</svg>
