<svg xmlns="http://www.w3.org/2000/svg" width="42" height="42"><path d="M35.863 6.137c-8.184-8.183-21.543-8.183-29.726 0-8.183 8.184-8.183 21.542 0 29.726 8.184 8.183 21.542 8.183 29.726 0 8.183-8.184 8.183-21.542 0-29.726zm3.068 20.786l-6.623-2.246a11.79 11.79 0 000-7.354l6.623-2.246a19.628 19.628 0 010 11.846zM3.07 15.077l6.623 2.246a11.79 11.79 0 000 7.354L3.07 26.923a19.628 19.628 0 010-11.846zM14.6 27.399c-3.673-3.673-3.673-9.664 0-13.337s9.664-3.673 13.337 0 3.673 9.664 0 13.337c-3.717 3.673-9.664 3.673-13.337 0zM26.923 3.07l-2.246 6.623a11.79 11.79 0 00-7.354 0L15.077 3.07a19.628 19.628 0 0111.846 0zM15.077 38.93l2.246-6.623a11.79 11.79 0 007.354 0l2.246 6.623a19.628 19.628 0 01-11.846 0z" fill="#3C7ABB"/></svg>