<svg xmlns="http://www.w3.org/2000/svg" width="37" height="30" viewBox="0 0 37 30">
    <g fill="none" fill-rule="evenodd">
        <g fill="#324769" fill-rule="nonzero">
            <path d="M1826.436 108.158H1819V105h9.668l1.808 5.657H1856L1851.639 125h-19.817l-5.386-16.842zm7.617 13.684h15.32l2.44-8.028h-20.327l2.567 8.028zm2.914 13.158c1.984 0 3.593-1.65 3.593-3.684 0-2.035-1.609-3.684-3.593-3.684-1.985 0-3.594 1.65-3.594 3.684 0 2.035 1.61 3.684 3.594 3.684zm11.293 0c1.985 0 3.593-1.65 3.593-3.684 0-2.035-1.608-3.684-3.593-3.684-1.984 0-3.593 1.65-3.593 3.684 0 2.035 1.609 3.684 3.593 3.684z" transform="translate(-1819.000000, -105.000000)"/>
        </g>
    </g>
</svg>
