<svg xmlns="http://www.w3.org/2000/svg" width="52" height="43" viewBox="0 0 52 43">
    <g fill="none" fill-rule="evenodd" opacity=".503">
        <g fill="#5479B8" fill-rule="nonzero">
            <path d="M1735.843 443c4.242 0 7.679 3.428 7.679 7.655s-3.438 7.654-7.68 7.654c-4.242 0-7.68-3.427-7.68-7.654s3.439-7.655 7.68-7.655zm-31.686 0c4.242 0 7.682 3.428 7.682 7.655s-3.44 7.654-7.682 7.654c-4.241 0-7.68-3.427-7.68-7.654s3.439-7.655 7.68-7.655zm-9.796 38.609c5.107-9.388 14.932-15.221 25.639-15.221 10.707 0 20.53 5.832 25.639 15.22.785 1.443.247 3.249-1.201 4.032-1.447.782-3.261.248-4.045-1.196-4.065-7.469-11.879-12.11-20.393-12.11-8.514 0-16.328 4.641-20.392 12.109-.784 1.444-2.594 1.98-4.045 1.198-1.45-.782-1.987-2.587-1.202-4.032z" transform="translate(-1694.000000, -443.000000)"/>
        </g>
    </g>
</svg>
