<svg xmlns="http://www.w3.org/2000/svg" width="23" height="21"><path d="M9.438 16.972a1.83 1.83 0 011.824 1.825 1.83 1.83 0 01-1.71 1.82l-.114.004a1.83 1.83 0 01-1.824-1.824 1.83 1.83 0 011.709-1.821l.115-.004zm7.534 0a1.83 1.83 0 011.825 1.825c0 .964-.76 1.76-1.71 1.82l-.115.004a1.83 1.83 0 01-1.824-1.824c0-.965.76-1.761 1.71-1.821l.114-.004zM9.438 18.53a.261.261 0 00-.267.267c0 .151.115.266.267.266a.262.262 0 00.267-.266.262.262 0 00-.267-.267zm7.534 0a.261.261 0 00-.266.267.26.26 0 00.266.266.261.261 0 00.267-.266.261.261 0 00-.267-.267zM6.975 0l1.761 3.173 13.352.018c.547 0 .912.364.912.91 0 .16 0 .25-.122.391l-.06.065-3.284 6.13c-.256.512-.753.864-1.416.906l-.134.004h-6.75l-1.614 2.34v.09c0 .079.067.157.144.177l.039.006h8.994v1.82h-9.36a1.827 1.827 0 01-1.823-1.82c0-.228.063-.519.137-.767l.045-.144 2.07-2.976-.016-.032H2.283a.696.696 0 01-.697-.696v-.192c0-.384.312-.695.697-.695h6.808l-.759-1.584H.697A.695.695 0 010 6.429v-.192c0-.384.312-.696.697-.696h6.876L5.79 1.821H3.966V0h3.01zm13.086 5.285L9.757 5.271l1.979 4.134.06.123 5.996.001 2.269-4.244z" fill="#324769"/></svg>