<svg xmlns="http://www.w3.org/2000/svg" width="43" height="57" viewBox="0 0 43 57">
    <g fill="none" fill-rule="evenodd">
        <g fill="#455E89">
            <g>
                <path d="M1018.5 147c11.874 0 21.5 9.546 21.5 21.322 0 3.98-1.1 7.706-3.015 10.894h.037l-.192.255c-.69 1.114-1.482 2.16-2.36 3.127L1018.315 204l-15.829-21.451c-3.411-3.774-5.486-8.76-5.486-14.227 0-11.776 9.626-21.322 21.5-21.322zm0 30.206c4.948 0 8.958-3.978 8.958-8.884 0-4.907-4.01-8.884-8.958-8.884s-8.958 3.977-8.958 8.884c0 4.906 4.01 8.884 8.958 8.884z" transform="translate(-1317.000000, -1678.000000) translate(320.000000, 1531.000000)"/>
            </g>
        </g>
    </g>
</svg>
