<svg style="display: none;" width="0" height="0" class="hidden">
	<symbol xmlns="http://www.w3.org/2000/svg" viewBox="0 0 23 21" id="bye_click">
		<path d="M9.438 16.972a1.83 1.83 0 011.824 1.825 1.83 1.83 0 01-1.71 1.82l-.114.004a1.83 1.83 0 01-1.824-1.824 1.83 1.83 0 011.709-1.821l.115-.004zm7.534 0a1.83 1.83 0 011.825 1.825c0 .964-.76 1.76-1.71 1.82l-.115.004a1.83 1.83 0 01-1.824-1.824c0-.965.76-1.761 1.71-1.821l.114-.004zM9.438 18.53a.261.261 0 00-.267.267c0 .151.115.266.267.266a.262.262 0 00.267-.266.262.262 0 00-.267-.267zm7.534 0a.261.261 0 00-.266.267.26.26 0 00.266.266.261.261 0 00.267-.266.261.261 0 00-.267-.267zM6.975 0l1.761 3.173 13.352.018c.547 0 .912.364.912.91 0 .16 0 .25-.122.391l-.06.065-3.284 6.13c-.256.512-.753.864-1.416.906l-.134.004h-6.75l-1.614 2.34v.09c0 .079.067.157.144.177l.039.006h8.994v1.82h-9.36a1.827 1.827 0 01-1.823-1.82c0-.228.063-.519.137-.767l.045-.144 2.07-2.976-.016-.032H2.283a.696.696 0 01-.697-.696v-.192c0-.384.312-.695.697-.695h6.808l-.759-1.584H.697A.695.695 0 010 6.429v-.192c0-.384.312-.696.697-.696h6.876L5.79 1.821H3.966V0h3.01zm13.086 5.285L9.757 5.271l1.979 4.134.06.123 5.996.001 2.269-4.244z"></path>
	</symbol>
	<symbol xmlns="http://www.w3.org/2000/svg" viewBox="0 0 30 30" id="cabinet">
		<path d="M26.02 21.273A5.254 5.254 0 0130 26.371v2.022C30 29.28 29.28 30 28.393 30H1.607C.72 30 0 29.28 0 28.393V26.37a5.258 5.258 0 013.98-5.1l5.747-1.435-.007-.734c-.007-.657-.28-1.313-.779-1.859-1.64-1.797-2.44-3.53-2.7-5.545-.097-.758-.116-1.333-.116-2.634A9.019 9.019 0 0115.03-.001c4.932.09 8.845 4.093 8.845 9.066 0 1.3-.019 1.875-.116 2.633-.26 2.015-1.06 3.748-2.7 5.546-.499.546-.772 1.201-.779 1.86l-.007.732 5.747 1.436zm.877 5.204a2.06 2.06 0 00-1.56-1.997l-6.103-1.525a2.851 2.851 0 01-2.16-2.796l.012-1.05c.015-1.485.607-2.906 1.633-4.03 1.205-1.321 1.727-2.451 1.904-3.826.075-.58.09-1.07.09-2.243 0-3.253-2.536-5.848-5.683-5.907-3.207.06-5.744 2.653-5.744 5.906 0 1.174.016 1.662.09 2.243.178 1.375.7 2.505 1.905 3.826 1.026 1.124 1.618 2.544 1.633 4.03l.011 1.05a2.85 2.85 0 01-2.159 2.796l-6.102 1.524a2.061 2.061 0 00-1.56 2v.419h23.793v-.42z"></path>
	</symbol>
	<symbol xmlns="http://www.w3.org/2000/svg" viewBox="0 0 12 9" id="check">
		<path d="M4.418 6.427L10.722 0 12 1.238 4.386 9 0 4.301l1.308-1.206z" opacity=".497"></path>
	</symbol>
	<symbol xmlns="http://www.w3.org/2000/svg" viewBox="0 0 37 37" id="close">
		<path d="M33.234 0l2.828 2.828-15.203 15.203 15.203 15.203-2.828 2.828-15.203-15.203L2.828 36.062 0 33.234l15.203-15.203L0 2.828 2.828 0l15.203 15.203L33.234 0z"></path>
	</symbol>
	<symbol xmlns="http://www.w3.org/2000/svg" viewBox="0 0 33 30" id="favorites">
		<path d="M16.5 21.515l6.11 3.077-1.166-6.51 4.886-4.562-6.757-.94L16.5 6.616l-3.073 5.964-6.757.94 4.886 4.563-1.166 6.51 6.11-3.078zm0 3.367L6.337 30l1.942-10.849L0 11.421l11.436-1.592L16.5 0l5.064 9.829L33 11.42l-8.28 7.73 1.943 10.849L16.5 24.881z"></path>
	</symbol>
	<symbol xmlns="http://www.w3.org/2000/svg" viewBox="0 0 34 44" id="phone">
		<path d="M6.814 28.088l.478.841c7.636 13.264 15.104 18.06 22.143 13.024l.119-.088-.109.064c4.258-2.41 5.045-6.478 2.412-11.229-2.585-4.662-6.417-6.404-10.94-4.787a2 2 0 00-1.234 1.284l-.055.167c-.09.267-.178.478-.253.632l-.031.06-.065-.049c-.87-.661-2.192-2.453-3.77-5.299l-.179-.325c-1.522-2.79-2.287-4.803-2.338-5.837l.073.006c.2.018.474.063.82.147.373.093.767.075 1.133-.051 4.854-1.68 5.88-5.718 3.097-10.738C15.491 1.177 11.722-.665 7.32.86l-.224.08c-8.63 3-8.497 12.148-.756 26.29l.475.858zm1.64-23.387c2.51-.942 4.383-.062 6.163 3.148l.121.223c1.378 2.564 1.239 3.772-.405 4.546l-.14.062-.038-.008c-2.852-.482-4.965.617-5.152 3.387-.135 1.993.887 4.762 3.008 8.589 2.123 3.83 3.927 6.158 5.688 7.084l.19.094c2.187 1.046 4.014.062 5.107-2.16l.106-.23.014-.001c2.132-.452 3.75.515 5.241 3.205 1.634 2.948 1.324 4.56-.882 5.808a1.8 1.8 0 00-.21.137c-4.614 3.44-10.246-.335-17.19-12.864l-.458-.835C3.21 13.054 3.105 6.709 8.227 4.783l.227-.08z"></path>
	</symbol>
	<symbol xmlns="http://www.w3.org/2000/svg" viewBox="0 0 30 29" id="search">
		<path d="M12.375 24.538C5.54 24.538 0 19.045 0 12.269S5.54 0 12.375 0 24.75 5.493 24.75 12.27c0 6.775-5.54 12.268-12.375 12.268zm0-2.974c5.178 0 9.375-4.161 9.375-9.295 0-5.133-4.197-9.295-9.375-9.295S3 7.136 3 12.269c0 5.134 4.197 9.295 9.375 9.295zm6.375-1.567l2.05-2.15 9.2 9.002L27.95 29l-9.2-9.003z"></path>
	</symbol>
	<symbol xmlns="http://www.w3.org/2000/svg" viewBox="0 0 23 21" id="add_favorites">
		<path d="M11.5 14.995l4.258 2.145-.812-4.537 3.406-3.18-4.71-.655L11.5 4.61 9.358 8.768l-4.71.655 3.406 3.18-.812 4.537 4.258-2.145zm0 2.347l-7.083 3.567 1.353-7.561L0 7.96l7.97-1.11L11.5 0l3.53 6.85L23 7.96l-5.77 5.388 1.353 7.561-7.083-3.567z"></path>
	</symbol>
	<symbol xmlns="http://www.w3.org/2000/svg" viewBox="0 0 31 22" id="arrow_link">
		<path d="M30.15 10.65l-10.598 10.5-1.992-1.974 6.934-6.871H.85V9.513h24.167L17.56 2.124 19.552.15l10.598 10.5z"></path>
	</symbol>
	<symbol xmlns="http://www.w3.org/2000/svg" viewBox="0 0 23 15" id="arrow_next">
		<path d="M.292 6.796h19.611L13.594.5h2.101l6.997 6.995-6.997 7.005h-2.101l6.309-6.3H.292z" fill-rule="evenodd"></path>
	</symbol>
	<symbol xmlns="http://www.w3.org/2000/svg" viewBox="0 0 23 15" id="arrow_prev">
		<path d="M22.437 6.796H2.826L9.135.5H7.034L.038 7.495 7.034 14.5h2.101L2.826 8.2h19.611z" fill-rule="evenodd"></path>
	</symbol>
	<symbol xmlns="http://www.w3.org/2000/svg" viewBox="0 0 21 28" id="arrow_up">
		<path d="M10.5 0L21 10.598l-1.974 1.992-6.871-6.934V27.3H9.363V5.133L1.974 12.59 0 10.598 10.5 0z"></path>
	</symbol>
	<symbol xmlns="http://www.w3.org/2000/svg" viewBox="0 0 37 30" id="basket">
		<path d="M7.436 3.158H0V0h9.668l1.808 5.657H37L32.639 20H12.822L7.436 3.158zm7.617 13.684h15.32l2.44-8.028H12.486l2.567 8.028zM17.967 30c1.984 0 3.593-1.65 3.593-3.684 0-2.035-1.609-3.684-3.593-3.684-1.985 0-3.594 1.65-3.594 3.684 0 2.035 1.61 3.684 3.594 3.684zm11.293 0c1.985 0 3.593-1.65 3.593-3.684 0-2.035-1.608-3.684-3.593-3.684-1.984 0-3.593 1.65-3.593 3.684 0 2.035 1.609 3.684 3.593 3.684z"></path>
	</symbol>
	<symbol xmlns="http://www.w3.org/2000/svg" viewBox="0 0 52 43" id="basket_empty">
		<path d="M41.843 0c4.242 0 7.679 3.428 7.679 7.655s-3.438 7.654-7.68 7.654c-4.242 0-7.68-3.427-7.68-7.654S37.601 0 41.842 0zM10.157 0c4.242 0 7.682 3.428 7.682 7.655s-3.44 7.654-7.682 7.654c-4.241 0-7.68-3.427-7.68-7.654S5.916 0 10.157 0zM.361 38.609A29.16 29.16 0 0126 23.388a29.16 29.16 0 0125.639 15.22 2.97 2.97 0 01-1.201 4.032 2.989 2.989 0 01-4.045-1.196A23.199 23.199 0 0026 29.334 23.197 23.197 0 005.608 41.443a2.989 2.989 0 01-4.045 1.198 2.968 2.968 0 01-1.202-4.032z" fill="#5479B8" opacity=".503"></path>
	</symbol>
	<symbol xmlns="http://www.w3.org/2000/svg" viewBox="0 0 25 24" id="bearing_width_min">
		<g transform="translate(.725)" fill="none">
			<circle cx="10.629" cy="10.629" r="10.629" fill="#000"></circle>
			<circle cx="13.371" cy="12.686" r="10.129" fill="#E4E9F0" stroke="#ADB6C6"></circle>
			<circle cx="13.371" cy="12.686" r="4.643" fill="#FFF" stroke="#ADB6C6"></circle>
		</g>
	</symbol>
	<symbol xmlns="http://www.w3.org/2000/svg" viewBox="0 0 30 30" id="bearing_inner">
		<g fill="none">
			<circle cx="13.286" cy="13.286" r="12.786" fill="#E4E9F0" stroke="#ADB6C6"></circle>
			<circle cx="16.714" cy="15.857" r="12.786" fill="#E4E9F0" stroke="#ADB6C6"></circle>
			<circle cx="16.714" cy="15.857" r="4.929" fill="#FFF" stroke="#000" stroke-width="3"></circle>
		</g>
	</symbol>
	<symbol xmlns="http://www.w3.org/2000/svg" viewBox="0 0 25 24" id="bearing_inner_min">
		<g transform="translate(.725)" fill="none">
			<circle cx="10.629" cy="10.629" r="10.129" fill="#E4E9F0" stroke="#ADB6C6"></circle>
			<circle cx="13.371" cy="12.686" r="10.129" fill="#E4E9F0" stroke="#ADB6C6"></circle>
			<circle cx="13.371" cy="12.686" r="3.643" fill="#FFF" stroke="#000" stroke-width="3"></circle>
		</g>
	</symbol>
	<symbol xmlns="http://www.w3.org/2000/svg" viewBox="0 0 30 30" id="bearing_outer">
		<g fill="none">
			<circle cx="13.286" cy="13.286" r="12.786" fill="#E4E9F0" stroke="#ADB6C6"></circle>
			<circle cx="16.714" cy="15.857" r="11.786" fill="#E4E9F0" stroke="#000" stroke-width="3"></circle>
			<circle cx="16.714" cy="15.857" r="5.929" fill="#FFF" stroke="#ADB6C6"></circle>
		</g>
	</symbol>
	<symbol xmlns="http://www.w3.org/2000/svg" viewBox="0 0 25 24" id="bearing_outer_min">
		<g transform="translate(.725)" fill="none">
			<circle cx="10.629" cy="10.629" r="10.129" fill="#E4E9F0" stroke="#ADB6C6"></circle>
			<circle cx="13.371" cy="12.686" r="9.129" fill="#E4E9F0" stroke="#000" stroke-width="3"></circle>
			<circle cx="13.371" cy="12.686" r="4.643" fill="#FFF" stroke="#ADB6C6"></circle>
		</g>
	</symbol>
	<symbol xmlns="http://www.w3.org/2000/svg" viewBox="0 0 30 30" id="bearing_width">
		<g fill="none">
			<circle cx="13.286" cy="13.286" r="13.286" fill="#000"></circle>
			<circle cx="16.714" cy="15.857" r="12.786" fill="#E4E9F0" stroke="#ADB6C6"></circle>
			<circle cx="16.714" cy="15.857" r="5.929" fill="#FFF" stroke="#ADB6C6"></circle>
		</g>
	</symbol>
	<symbol xmlns="http://www.w3.org/2000/svg" viewBox="0 0 12 15" id="stock_little">
		<path d="M6 3a6 6 0 110 12A6 6 0 016 3zM3.693 4.509l-.32 1.199 2.376 4.314 1.36-.754-3.416-4.76zM8 0v2H4V0h4z" fill="#DB5959"></path>
	</symbol>
	<symbol xmlns="http://www.w3.org/2000/svg" viewBox="0 0 16 13" id="stock_lot">
		<path d="M.47 4.895l5.14 4.122L15.403 0 16 1.504 5.61 13 0 6.5z" fill="#0BB20C"></path>
	</symbol>
	<symbol xmlns="http://www.w3.org/2000/svg" viewBox="0 0 77 14" id="logo_salt">
		<path d="M32.705 10.976a8.49 8.49 0 004.352-1.056c.072-.04.148-.068.25-.114a5.1 5.1 0 01.543 2.353c.012.914 0 .933-.86 1.215a13.098 13.098 0 01-4.477.588c-1.613-.033-3.137-.343-4.525-1.192-1.65-.998-2.572-2.493-2.858-4.378a8.04 8.04 0 01.46-4.464C26.454 1.894 28.054.76 30.14.289a11.05 11.05 0 017.353.828c.117.054.283.187.283.283a6.282 6.282 0 01-.767 3.172c-.784-.4-1.524-.824-2.306-1.167a4.709 4.709 0 00-2.95-.282c-1.62.371-2.594 1.556-2.649 3.329a7.091 7.091 0 00.194 1.924c.408 1.59 1.729 2.565 3.41 2.61l-.003-.01zm40.319-2.432a1.06 1.06 0 00-.362-.48 1.041 1.041 0 00-.56-.204c-1.029-.035-2.06 0-3.108 0v3.049c1.058 0 2.09.042 3.117-.026a1.266 1.266 0 00.809-.553 1.77 1.77 0 00.097-1.775l.007-.011zm3.388 2.953c-.691 1.488-1.969 2.18-3.548 2.215-2.383.056-4.767.017-7.146.019-.332 0-.528-.154-.528-.485V5.715a6.544 6.544 0 01-.037-.61 5.232 5.232 0 00-.09-.986c-.027-.26-.15-.5-.347-.67a1.01 1.01 0 00-.706-.249c-.692-.023-1.404 0-2.137 0 0 .7.012 1.4 0 2.1-.03 1.7-.134 3.393-.606 5.035-.385 1.339-1.012 2.528-2.377 3.097a5.11 5.11 0 01-1.63.369c-.818.047-1.643-.023-2.48-.044a5.876 5.876 0 01.037-3.032c.365.018.731.018 1.097 0a2.078 2.078 0 001.163-.435c.335-.26.585-.617.716-1.023.275-.777.454-1.584.535-2.405.09-1.15.023-2.311.023-3.569h-2.42c-.098-.811-.167-.97-.167-1.443A4.623 4.623 0 0155.93.306h.498c2.766 0 5.533-.021 8.31.014a6.129 6.129 0 012.015.333c1.344.49 1.902 1.633 2.119 2.967.06.41.09.822.09 1.236v.133a.15.15 0 01.018.05c1.084 0 2.116-.017 3.147 0 .59-.003 1.18.047 1.763.148 1.485.304 2.43 1.216 2.796 2.699a5.319 5.319 0 01-.267 3.601l-.007.01zM49.591 6.155c-.12-1.611-.922-2.992-2.997-3.1-1.554-.079-2.748.481-3.255 2.186a8.773 8.773 0 00-.23 1.763c0 .288.018.575.05.861.175 1.549.82 2.869 2.7 3.083 1.648.187 3.174-.377 3.614-2.332.16-.809.2-1.637.122-2.458l-.004-.003zm2.4 5.677a6.297 6.297 0 01-3.567 1.943c-2.146.413-4.248.315-6.203-.786-1.796-1.014-2.727-2.63-3.036-4.63a8.032 8.032 0 01.422-4.27C40.384 2.15 41.822.924 43.814.385c2.06-.555 4.121-.504 6.1.362 2.097.914 3.259 2.586 3.653 4.814.083.466.097.96.143 1.439-.03 1.812-.477 3.468-1.724 4.837"></path>
		<path d="M0 5h20v1H0zm0 3h20v1H0z"></path>
	</symbol>
	<symbol xmlns="http://www.w3.org/2000/svg" viewBox="0 0 22 25" id="delete">
		<path d="M1 8h2v13c.025 2.337 1.702 4 4 4h8c2.298 0 3.975-1.663 4-4V8h2c.505.27 1-.221 1-1 0-.42-.495-1.911-1-2h-5V3c.4-1.8-1.81-3-3-3H9C7.81 0 5.6 1.2 6 3v2H1c-.505.089-1 1.58-1 2 0 .779.495 1.27 1 1zm8-4c0-.771.2-1 0-1h4c-.2 0 0 .229 0 1v1H9V4zM6 8h10v12c0 1.266-.714 2-2 2H8c-1.257 0-2-.706-2-2V8z"></path>
	</symbol>
	<symbol xmlns="http://www.w3.org/2000/svg" viewBox="0 0 13 13" id="stock_cross">
		<path d="M1.904.49L6.5 5.086 11.096.49l1.414 1.414L7.914 6.5l4.596 4.596-1.414 1.414L6.5 7.914 1.904 12.51.49 11.096 5.085 6.5.49 1.904 1.904.49z" fill="#DB5959" fill-rule="evenodd"></path>
	</symbol>
	<symbol xmlns="http://www.w3.org/2000/svg" viewBox="0 0 16 20" id="add_file">
		<g fill="none" fill-rule="evenodd">
			<g fill="#8A8A8A">
				<g>
					<g>
						<g>
							<g>
								<path d="M23.905 26.946l-4.715 9.899c-.472 1.001-1.676 1.434-2.688.967l-7.334-3.381c-1.012-.467-1.45-1.657-.978-2.658l5.997-12.618c.472-1.001 1.676-1.434 2.69-.967l4.582 2.113c1.013.467 1.45 1.657.978 2.658l-4.286 8.993c-.473 1.001-1.676 1.434-2.689.967l-1.833-.845c-1.013-.467-1.451-1.657-.979-2.658l3.004-6.274c.237-.501.839-.717 1.344-.484.507.234.726.829.49 1.329l-2.576 5.368c-.237.5-.017 1.095.488 1.329.507.233 1.109.017 1.345-.484l3.432-7.179c.235-.501.017-1.097-.49-1.33l-2.75-1.268c-.506-.233-1.108-.017-1.344.484l-5.14 10.801c-.238.503-.017 1.1.492 1.335l5.491 2.532c.509.234 1.114.017 1.35-.486l4.285-8.988c.237-.501.839-.717 1.345-.484.506.233.725.829.49 1.329" transform="translate(-808.000000, -1601.000000) translate(320.000000, 1148.000000) translate(480.000000, 0.000000) translate(0.000000, 435.000000)"></path>
							</g>
						</g>
					</g>
				</g>
			</g>
		</g>
	</symbol>
</svg>