<svg width="0" height="0" class="hidden">
	<symbol version="1.1" xmlns="http://www.w3.org/2000/svg" xmlns:xlink="http://www.w3.org/1999/xlink" viewBox="0 0 171 171" id="loader">
		<g id="1920" stroke="none" stroke-width="1" fill="none" fill-rule="evenodd">
			<path d="M86.9414678,0.0109301964 C132.965945,0.728284359 170.802928,38.3824803 170.723804,85.3769378 C170.881389,132.377718 132.44891,170.834052 85.1736611,170.747976 C38.5781169,170.66276 -0.606491998,132.59212 0.00711022046,84.1336388 C0.58852347,38.2177992 38.1855265,-0.748959389 86.9414678,0.0109301964 Z M20.4844708,85.7662701 C20.6914295,121.585343 49.6493785,150.153478 85.2787034,150.278551 C121.264372,150.278551 150.10354,121.268258 150.277736,85.7720582 C150.453592,49.6358999 121.564093,20.8483214 86.1449002,20.4748652 C49.5703588,20.0893297 20.2772052,49.4995029 20.4844708,85.7662701 Z M66.561755,126.085956 C71.8716923,128.579753 77.4293562,129.958436 83.3100521,129.872799 C84.0899663,129.86132 84.4798087,130.14601 84.8053661,130.767967 C85.8821391,132.825316 86.4675913,135.000443 86.4637077,137.76263 C86.3323633,141.416081 84.8246515,144.877826 81.6951222,147.537387 C81.2488009,147.916668 80.4287086,148.046386 79.8058333,147.994958 C75.6348876,147.651722 71.4981508,147.057086 67.4927389,145.792509 C65.5065634,145.165272 63.5428876,144.458597 61.6001044,143.70784 C61.1703136,143.541847 60.7324871,143.102643 60.5334333,142.678822 C57.85872,136.992817 59.9091805,129.675353 65.1630981,126.189731 C65.5100072,125.959453 66.1852288,125.909173 66.561755,126.085956 Z M98.3947001,133.023128 C99.1528142,135.69059 100.466027,138.281771 102.809114,140.261133 C99.9629415,141.890852 90.6444567,143.546471 85.7156551,143.229119 C87.1903947,140.503234 87.7849128,137.693629 87.4874943,134.815292 C91.1259034,134.217243 94.6859355,133.632364 98.3947001,133.023128 Z M116.890934,117.508149 C119.107093,118.20152 121.059117,119.32559 123.009532,121.281497 C125.500038,123.957752 126.881748,127.471689 126.54943,131.565193 C126.502025,132.148982 126.013857,132.8206 125.537052,133.224674 C122.345044,135.931274 118.999458,138.435917 115.273014,140.37398 C113.425052,141.334895 111.536828,142.223728 109.632208,143.066618 C109.210925,143.253152 108.590771,143.252178 108.150332,143.093243 C102.238412,140.963938 98.5140774,134.339815 99.7644511,128.160027 C99.8469218,127.751894 100.288822,127.238887 100.680071,127.097648 C106.198145,125.106336 111.102883,122.15135 115.200608,117.932516 C115.743974,117.372916 116.22094,117.298563 116.890934,117.508149 Z M92.2446277,136.91028 C91.4720325,137.722487 91.5348596,139.088612 92.3819707,139.891566 C93.2173931,140.68348 94.3778282,140.634452 95.2265628,139.771431 C96.034062,138.950295 96.0425039,137.715506 95.2462102,136.915309 C94.4672798,136.13249 92.9867022,136.130217 92.2446277,136.91028 Z M51.6355272,122.208456 C54.6311556,124.358315 57.56205,126.462067 60.615338,128.653764 C59.2652247,131.076013 58.3615646,133.836836 58.6187575,136.893268 C55.4538243,136.033106 47.6939613,130.614641 44.433174,126.905051 C47.4034636,126.020358 49.8105425,124.454054 51.6355272,122.208456 Z M53.3366682,126.952526 C52.2160437,126.980536 51.2944729,127.990958 51.325697,129.15773 C51.356462,130.30843 52.2116815,131.094314 53.4220753,131.084212 C54.5736944,131.074569 55.4527912,130.207411 55.4555517,129.078521 C55.4583013,127.974198 54.412982,126.925664 53.3366682,126.952526 Z M85.7441128,42.1395866 C109.309806,42.3135726 128.81962,61.7448314 128.556443,85.4468045 C128.75895,109.100979 108.946058,128.752384 85.0092392,128.557639 C61.7089095,128.368358 42.0138057,109.187289 42.1383786,85.1094847 C42.2616786,61.49628 61.6520654,41.9615036 85.7441128,42.1395866 Z M42.5281965,99.8782711 C42.9363294,99.9607418 43.4493366,100.402642 43.5905759,100.793891 C45.5818877,106.311965 48.5368737,111.216703 52.7557079,115.314428 C53.3153078,115.857794 53.3896613,116.33476 53.1800752,117.004754 C52.4867039,119.220913 51.3626338,121.172937 49.4067267,123.123352 C46.7304717,125.613858 43.2165352,126.995568 39.1230306,126.66325 C38.5392415,126.615845 37.8676242,126.127677 37.4635499,125.650872 C34.7569503,122.458864 32.2523067,119.113278 30.3142437,115.386834 C29.3533294,113.538872 28.4644958,111.650648 27.6216056,109.746028 C27.4350723,109.324745 27.4360464,108.704591 27.5949812,108.264152 C29.7242855,102.352232 36.3484088,98.6278974 42.5281965,99.8782711 Z M128.409226,109.793534 C130.831474,111.143648 133.592297,112.047308 136.64873,111.790115 C135.788568,114.955048 130.370103,122.714911 126.660512,125.975698 C125.77582,123.005409 124.209516,120.59833 121.963918,118.773345 C124.113777,115.777717 126.217529,112.846822 128.409226,109.793534 Z M128.964701,114.822602 C127.860378,114.819853 126.811844,115.865172 126.838706,116.941486 C126.866716,118.06211 127.877138,118.983681 129.04391,118.952457 C130.19461,118.921692 130.980494,118.066473 130.970392,116.856079 C130.960749,115.70446 130.093591,114.825363 128.964701,114.822602 Z M137.497136,84.117794 C141.150588,84.2491384 144.612332,85.7568502 147.271893,88.8863795 C147.651174,89.3327008 147.780892,90.1527931 147.729464,90.7756684 C147.386228,94.9466141 146.791592,99.0833509 145.527016,103.088763 C144.899778,105.074938 144.193103,107.038614 143.442346,108.981397 C143.276353,109.411188 142.837149,109.849015 142.413328,110.048068 C136.727324,112.722782 129.409859,110.672321 125.924237,105.418404 C125.693959,105.071494 125.643679,104.396273 125.820463,104.019747 C128.31426,98.7098094 129.692942,93.1521455 129.607306,87.2714496 C129.595826,86.4915354 129.880517,86.101693 130.502474,85.7761356 C132.559822,84.6993626 134.734949,84.1139104 137.497136,84.117794 Z M85.392149,61.1553635 C72.0744803,61.1531997 61.3715714,71.9029063 61.3278667,85.3742718 C61.2848101,98.6581469 72.1217691,109.527863 85.3417336,109.530618 C98.6060558,109.533568 109.388157,98.7228734 109.388157,85.4216854 C109.447314,72.1265962 98.7805555,61.1577246 85.392149,61.1553635 Z M26.8314544,85.9601933 C29.5573387,87.4349328 32.3669441,88.0294509 35.2452808,87.7320324 C35.84333,91.3704415 36.4282085,94.9304736 37.0374453,98.6392382 C34.3699826,99.3973524 31.7788017,100.710565 29.7994403,103.053652 C28.1697211,100.20748 26.5141024,90.8889949 26.8314544,85.9601933 Z M30.3416367,92.6474646 C29.5497225,93.4828869 29.5987504,94.643322 30.4617713,95.4920566 C31.2829074,96.2995558 32.517696,96.3079977 33.3178936,95.5117041 C34.1007126,94.7327736 34.1029855,93.2521961 33.3229224,92.5101215 C32.5107152,91.7375263 31.1445903,91.8003534 30.3416367,92.6474646 Z M44.847087,64.9735704 C45.0773649,65.3204796 45.1276449,65.9957012 44.9508613,66.3722274 C42.4570642,71.6821647 41.0783815,77.2398286 41.1640182,83.1205245 C41.1754977,83.9004387 40.8908072,84.2902811 40.2688502,84.6158384 C38.2115021,85.6926114 36.0363747,86.2780637 33.274188,86.2741801 C29.6207362,86.1428357 26.1589914,84.6351239 23.499431,81.5055946 C23.1201497,81.0592733 22.9904319,80.2391809 23.0418598,79.6163056 C23.3850956,75.44536 23.9797314,71.3086232 25.2443083,67.3032113 C25.8715458,65.3170358 26.5782211,63.35336 27.3289776,61.4105768 C27.4949705,60.980786 27.9341745,60.5429595 28.357996,60.3439057 C34.0440003,57.6691924 41.3614649,59.7196529 44.847087,64.9735704 Z M140.319942,67.7064807 C141.949661,70.5526529 143.60528,79.8711377 143.287928,84.7999393 C140.562044,83.3251998 137.752438,82.7306817 134.874102,83.0281002 C134.276053,79.3896911 133.691174,75.829659 133.081937,72.1208944 C135.7494,71.3627802 138.340581,70.0495678 140.319942,67.7064807 Z M137.104836,75.5936875 C136.322017,76.372618 136.319745,77.8531955 137.099808,78.5952701 C137.912015,79.3678653 139.27814,79.3050382 140.081093,78.457927 C140.873008,77.6225047 140.82398,76.4620696 139.960959,75.613335 C139.139823,74.8058358 137.905034,74.7973939 137.104836,75.5936875 Z M131.603047,43.9871203 C132.186836,44.0345248 132.858454,44.5226933 133.262528,44.9994977 C135.969127,48.191506 138.473771,51.5370917 140.411834,55.2635365 C141.372748,57.1114985 142.261582,58.9997219 143.104472,60.904342 C143.291005,61.3256248 143.290031,61.945779 143.131097,62.3862183 C141.001792,68.2981384 134.377669,72.0224727 128.197881,70.7720991 C127.789748,70.6896283 127.276741,70.2477278 127.135502,69.8564787 C125.14419,64.3384053 122.189204,59.4336675 117.97037,55.3359419 C117.41077,54.7925764 117.336416,54.3156097 117.546003,53.6456159 C118.239374,51.4294576 119.363444,49.477433 121.319351,47.5270181 C123.995606,45.0365121 127.509543,43.6548021 131.603047,43.9871203 Z M43.5041161,43.919343 C44.3888091,46.8896327 45.9551123,49.2967115 48.2007104,51.1216962 C46.0508512,54.1173246 43.9471,57.048219 41.7554028,60.1015071 C39.3331542,58.7513938 36.5723312,57.8477336 33.5158985,58.1049265 C34.3760607,54.9399933 39.7945253,47.1801303 43.5041161,43.919343 Z M41.2723929,51.1361694 C40.1216922,51.1669344 39.3358086,52.0221538 39.3459105,53.2325477 C39.3555532,54.3841668 40.2227114,55.2632635 41.3516011,55.266024 C42.4559248,55.2687737 43.5044583,54.2234544 43.4775964,53.1471406 C43.4495865,52.026516 42.4391648,51.1049453 41.2723929,51.1361694 Z M62.5757459,27.2537798 C68.487666,29.383084 72.2120004,36.0072074 70.9616267,42.1869951 C70.8791559,42.595128 70.4372555,43.1081351 70.0460064,43.2493744 C64.5279329,45.2406863 59.6231951,48.1956722 55.5254695,52.4145065 C54.9821041,52.9741063 54.5051373,53.0484599 53.8351435,52.8388738 C51.6189852,52.1455024 49.6669606,51.0214324 47.7165458,49.0655252 C45.2260398,46.3892702 43.8443297,42.8753338 44.176648,38.7818291 C44.2240524,38.19804 44.7122209,37.5264228 45.1890253,37.1223485 C48.3810336,34.4157489 51.7266193,31.9111052 55.4530641,29.9730422 C57.3010262,29.0121279 59.1892495,28.1232944 61.0938697,27.2804042 C61.5151524,27.0938709 62.1353066,27.094845 62.5757459,27.2537798 Z M112.152272,33.457089 C115.317205,34.3172512 123.077068,39.7357158 126.337855,43.4453066 C123.367566,44.3299996 120.960487,45.8963029 119.135502,48.1419009 C116.139874,45.9920417 113.208979,43.8882905 110.155691,41.6965933 C111.505805,39.2743447 112.409465,36.5135217 112.152272,33.457089 Z M90.9651961,22.7006584 C95.1361417,23.0438941 99.2728785,23.63853 103.27829,24.9031069 C105.264466,25.5303444 107.228142,26.2370197 109.170925,26.9877761 C109.600716,27.1537691 110.038542,27.5929731 110.237596,28.0167946 C112.912309,33.7027988 110.861849,41.0202634 105.607931,44.5058855 C105.261022,44.7361634 104.5858,44.7864435 104.209274,44.6096598 C98.899337,42.1158628 93.3416731,40.7371801 87.4609772,40.8228168 C86.681063,40.8342963 86.2912206,40.5496057 85.9656633,39.9276488 C84.8888903,37.8703006 84.303438,35.6951733 84.3073216,32.9329865 C84.438666,29.2795348 85.9463778,25.8177899 89.0759071,23.1582295 C89.5222284,22.7789483 90.3423208,22.6492304 90.9651961,22.7006584 Z M117.348954,39.6114043 C116.197335,39.6210471 115.318238,40.4882052 115.315478,41.6170949 C115.312728,42.7214186 116.358047,43.7699522 117.434361,43.7430902 C118.554986,43.7150804 119.476556,42.7046586 119.445332,41.5378867 C119.414567,40.387186 118.559348,39.6013024 117.348954,39.6114043 Z M84.8587488,26.4692973 C83.3840093,29.1951816 82.7894912,32.004787 83.0869097,34.8831237 C79.4485006,35.4811728 75.8884685,36.0660514 72.1797039,36.6752881 C71.4215897,34.0078255 70.1083773,31.4166446 67.7652901,29.4372831 C70.6114624,27.8075639 79.9299472,26.1519452 84.8587488,26.4692973 Z M75.499515,30.1205698 C74.6920158,30.9417059 74.6835739,32.1764946 75.4798675,32.9766921 C76.258798,33.7595112 77.7393755,33.761784 78.4814501,32.981721 C79.2540453,32.1695138 79.1912181,30.8033888 78.344107,30.0004353 C77.5086846,29.2085211 76.3482495,29.257549 75.499515,30.1205698 Z" id="Combined-Shape" fill="#E5E5E5"></path>
		</g>
	</symbol>
</svg>