<svg width="87" height="51" xmlns="http://www.w3.org/2000/svg"><g fill="none" fill-rule="evenodd"><path d="M68.975 38.39c-.133 0-.317-.112-.392-.228-1.481-2.298-2.95-4.604-4.42-6.908-.03-.047-.053-.1-.104-.196-.254.363-.46.651-.662.943-1.375 2.006-2.752 4.01-4.117 6.021-.18.265-.365.394-.704.389a170.145 170.145 0 00-4.1-.007c-.3.003-.405-.071-.399-.399.025-1.221.015-2.444.014-3.666 0-6.986 0-13.972-.008-20.958 0-.236.062-.314.3-.313 1.984.007 3.967.009 5.95-.003.291-.001.298.145.297.356-.002 1.84.001 3.678 0 5.517-.001 2.21-.006 4.418-.007 6.627 0 .05.015.1.037.238.101-.133.154-.19.193-.255 1.354-2.284 2.706-4.57 4.062-6.854a764.405 764.405 0 013.221-5.396.546.546 0 01.398-.217c2.162-.012 4.325-.005 6.488-.003h.669c-.29.449-.526.823-.768 1.192-1.891 2.888-3.784 5.773-5.675 8.66-.455.694-.894 1.397-1.36 2.083-.127.187-.06.306.037.45.81 1.211 1.617 2.424 2.428 3.634.997 1.49 1.999 2.977 2.996 4.466 1.004 1.499 2.005 3 3.006 4.5.054.08.102.164.173.28-.114.022-.186.048-.258.048-2.432.005-4.863.01-7.295 0zm-33.506.017c-.333 0-.403-.105-.402-.422.01-4.093.007-8.186.007-12.28 0-4.093.002-8.186-.005-12.28-.001-.273.059-.36.352-.358 1.938.015 3.877.013 5.816 0 .281-.002.365.072.365.357-.008 6.291-.004 12.583-.014 18.874 0 .297.123.326.36.326 3.025-.005 6.051.001 9.076-.012.33-.001.418.094.415.415a292.58 292.58 0 000 4.98c.003.316-.103.399-.405.398-5.189-.007-10.377-.008-15.565.002zm-3.875-.002c-6.262-.008-12.525-.006-18.788-.008-.117 0-.235-.019-.453-.037 3.159-6.575 6.286-13.087 9.44-19.655-.155-.015-.247-.032-.34-.032-2.744-.001-5.489-.004-8.234.004-.242 0-.339-.053-.337-.313.009-1.671.007-3.342.002-5.012 0-.215.06-.286.29-.285 5.165.009 10.33.01 15.494.01.885 0 1.77.005 2.655-.011.291-.005.303.101.2.32-.462.97-.918 1.945-1.382 2.914-.624 1.304-1.256 2.603-1.881 3.906a4940.34 4940.34 0 00-3.048 6.365c-.826 1.729-1.649 3.458-2.474 5.187-.147.308-.299.614-.476.976.207.015.346.034.486.034 2.935.002 5.87.007 8.806-.005.322-.001.427.083.424.41a300.83 300.83 0 000 4.844c.002.295-.09.388-.384.388zM34.814 0L21.659 8.056 12.806 0h-4.75A8.057 8.057 0 000 8.058v34.38a8.057 8.057 0 008.056 8.059h70.888A8.057 8.057 0 0087 42.439V8.058A8.057 8.057 0 0078.944 0h-44.13z" fill="#FFF"/><path d="M2 43h83a6 6 0 01-6 6H8a6 6 0 01-6-6z" fill="#E03733"/></g></svg>