<svg xmlns="http://www.w3.org/2000/svg" width="113" height="66" viewBox="0 0 113 66">
    <g fill="none" fill-rule="evenodd">
        <g fill="#FFF">
            <g>
                <path d="M113.589 72.863c-.174 0-.413-.146-.51-.296-1.924-2.985-3.832-5.98-5.741-8.973-.04-.061-.069-.129-.134-.254-.331.471-.6.845-.86 1.225-1.786 2.605-3.575 5.207-5.348 7.82-.234.345-.474.512-.915.505-1.774-.03-3.55-.022-5.326-.008-.388.003-.525-.093-.517-.519.032-1.586.02-3.174.019-4.762-.001-9.074-.002-18.147-.01-27.221-.001-.306.08-.409.39-.407 2.575.01 5.151.012 7.727-.003.378-.002.386.188.386.462-.004 2.389 0 4.777 0 7.166-.003 2.87-.008 5.738-.01 8.607 0 .066.02.13.048.31.132-.174.2-.248.25-.332 1.76-2.967 3.516-5.936 5.277-8.902 1.388-2.34 2.777-4.68 4.184-7.01.09-.147.34-.28.516-.281 2.809-.015 5.618-.007 8.427-.004h.869c-.375.583-.682 1.069-.997 1.55-2.457 3.75-4.915 7.497-7.371 11.247-.59.901-1.162 1.815-1.767 2.705-.165.243-.077.398.048.585 1.052 1.573 2.1 3.148 3.154 4.72 1.296 1.934 2.596 3.866 3.892 5.8 1.303 1.947 2.603 3.896 3.903 5.845.07.104.133.213.225.363-.148.029-.241.064-.335.064-3.158.006-6.316.013-9.474-.002zm-43.52.022c-.433 0-.524-.137-.523-.548.015-5.317.01-10.633.01-15.95 0-5.316.003-10.633-.007-15.95 0-.355.076-.468.457-.465 2.518.019 5.037.017 7.554 0 .366-.003.475.094.474.463-.01 8.172-.005 16.344-.017 24.515 0 .387.16.424.467.424 3.93-.006 7.86.001 11.79-.016.427-.001.541.122.538.54-.019 2.155-.019 4.311 0 6.467.003.411-.134.518-.527.518-6.739-.01-13.478-.011-20.217.002zm-5.033-.003c-8.134-.01-16.268-.007-24.402-.01-.153 0-.307-.024-.589-.048l12.26-25.529c-.2-.02-.32-.041-.44-.041-3.565-.002-7.13-.006-10.695.005-.315 0-.44-.07-.438-.408.012-2.17.01-4.34.002-6.51 0-.277.08-.37.377-.37 6.708.012 13.417.013 20.125.014 1.15 0 2.299.006 3.448-.015.378-.006.394.132.259.416-.6 1.261-1.191 2.526-1.794 3.786-.81 1.693-1.631 3.38-2.444 5.073-1.321 2.755-2.64 5.51-3.958 8.267-1.073 2.245-2.142 4.492-3.214 6.737-.19.4-.388.797-.618 1.268.269.02.45.044.63.044 3.813.002 7.626.01 11.438-.006.42-.002.555.107.552.533-.018 2.096-.016 4.194 0 6.29.003.383-.116.504-.499.504zM69.218 23L52.132 33.463 40.633 23h-6.17C28.685 23 24 27.686 24 33.466v44.655c0 5.78 4.685 10.466 10.463 10.466h92.074c5.778 0 10.463-4.685 10.463-10.466V33.466C137 27.686 132.315 23 126.537 23h-57.32z" transform="translate(-24.000000, -1035.000000) translate(0.000000, 1012.000000)"/>
            </g>
        </g>
    </g>
</svg>
